<?xml version="1.0" encoding="utf-8"?>
<!-- Generator: Adobe Illustrator 18.0.0, SVG Export Plug-In . SVG Version: 6.00 Build 0)  -->
<!DOCTYPE svg PUBLIC "-//W3C//DTD SVG 1.1//EN" "http://www.w3.org/Graphics/SVG/1.1/DTD/svg11.dtd">
<svg version="1.1" id="图层_1" xmlns="http://www.w3.org/2000/svg" xmlns:xlink="http://www.w3.org/1999/xlink" x="0px" y="0px"
	 viewBox="0 0 44 44" enable-background="new 0 0 44 44" xml:space="preserve">
<g>
	<path fill-rule="evenodd" fill="#666" clip-rule="evenodd" d="M41.1,37.7l-6.9-6.8c2.2-2.9,3.5-6.6,3.5-10.5c0-9.7-7.8-17.5-17.5-17.5
		c-9.7,0-17.5,7.8-17.5,17.5c0,9.7,7.8,17.5,17.5,17.5c4.4,0,8.5-1.7,11.6-4.4l7,6.8c0.7,0.7,1.8,0.6,2.4-0.1
		C41.8,39.5,41.8,38.4,41.1,37.7L41.1,37.7z M20.2,34.8c-7.9,0-14.4-6.4-14.4-14.4C5.8,12.4,12.3,6,20.2,6c7.9,0,14.4,6.4,14.4,14.4
		C34.6,28.3,28.2,34.8,20.2,34.8L20.2,34.8z"/>
</g>
</svg>
